<svg width="28" height="32" viewBox="0 0 28 32" fill="none" xmlns="http://www.w3.org/2000/svg">
<mask id="path-1-inside-1_4_138" fill="white">
<path d="M27.3137 4.68629C25.0761 2.44865 22.2251 0.924798 19.1214 0.307435C16.0177 -0.309928 12.8007 0.00692582 9.87706 1.21793C6.95345 2.42893 4.45459 4.47969 2.69648 7.11088C0.938383 9.74207 -4.77826e-07 12.8355 0 16C4.77827e-07 19.1645 0.938385 22.2579 2.69649 24.8891C4.45459 27.5203 6.95345 29.5711 9.87707 30.7821C12.8007 31.9931 16.0178 32.3099 19.1214 31.6926C22.2251 31.0752 25.0761 29.5513 27.3137 27.3137L20.7687 20.7687C19.8255 21.7118 18.6239 22.3541 17.3157 22.6144C16.0075 22.8746 14.6515 22.741 13.4192 22.2306C12.1869 21.7202 11.1336 20.8558 10.3926 19.7467C9.65158 18.6377 9.25605 17.3338 9.25605 16C9.25605 14.6662 9.65158 13.3623 10.3926 12.2533C11.1336 11.1442 12.1869 10.2798 13.4192 9.7694C14.6515 9.25897 16.0075 9.12542 17.3157 9.38563C18.6239 9.64585 19.8255 10.2881 20.7687 11.2313L27.3137 4.68629Z"/>
</mask>
<path d="M27.3137 4.68629C25.0761 2.44865 22.2251 0.924798 19.1214 0.307435C16.0177 -0.309928 12.8007 0.00692582 9.87706 1.21793C6.95345 2.42893 4.45459 4.47969 2.69648 7.11088C0.938383 9.74207 -4.77826e-07 12.8355 0 16C4.77827e-07 19.1645 0.938385 22.2579 2.69649 24.8891C4.45459 27.5203 6.95345 29.5711 9.87707 30.7821C12.8007 31.9931 16.0178 32.3099 19.1214 31.6926C22.2251 31.0752 25.0761 29.5513 27.3137 27.3137L20.7687 20.7687C19.8255 21.7118 18.6239 22.3541 17.3157 22.6144C16.0075 22.8746 14.6515 22.741 13.4192 22.2306C12.1869 21.7202 11.1336 20.8558 10.3926 19.7467C9.65158 18.6377 9.25605 17.3338 9.25605 16C9.25605 14.6662 9.65158 13.3623 10.3926 12.2533C11.1336 11.1442 12.1869 10.2798 13.4192 9.7694C14.6515 9.25897 16.0075 9.12542 17.3157 9.38563C18.6239 9.64585 19.8255 10.2881 20.7687 11.2313L27.3137 4.68629Z" stroke="#70E000" stroke-width="24" mask="url(#path-1-inside-1_4_138)"/>
</svg>
