<svg width="35" height="40" viewBox="0 0 35 40" fill="none" xmlns="http://www.w3.org/2000/svg">
<g clip-path="url(#clip0_5_18)">
<path d="M12.0997 2.85712C5.71523 2.85712 0.527344 8.95399 0.527344 16.4571C0.527344 23.9602 5.71523 30.0571 12.0997 30.0571C14.6258 30.0571 16.9605 29.1009 18.8644 27.4821L27.8203 37.9821L29.7348 35.7321L20.8853 25.3071C22.6244 22.9259 23.6721 19.8352 23.6721 16.4571C23.6721 8.95399 18.4842 2.85712 12.0997 2.85712ZM12.0997 4.45712C17.7476 4.45712 22.3106 9.81962 22.3106 16.4571C22.3106 23.0946 17.7476 28.4571 12.0997 28.4571C6.4518 28.4571 1.8888 23.0946 1.8888 16.4571C1.8888 9.81962 6.4518 4.45712 12.0997 4.45712Z" fill="#111111"/>
</g>
<defs>
<clipPath id="clip0_5_18">
<rect width="34.0364" height="40" fill="white" transform="translate(0.527344)"/>
</clipPath>
</defs>
</svg>
